# xmcd
#
# Track frame offsets: 
#        150
#        18905
#        42202
#        62830
#        93195
#        115960
#        135467
#        151395
#
# Disc length: 2407 seconds
#
# Revision: 1
# Processed by: cddbd v1.5.2PL0 Copyright (c) Steve Scherf et al.
# Submitted via: ExactAudioCopyFreeDBPlugin 1.0
#
DISCID=5d096508
DTITLE=Lonnie Liston Smith - Loveland
DYEAR=1978
DGENRE=Jazz+Funk
TTITLE0=Sunburst
TTITLE1=Journey Into Love
TTITLE2=Floating Through Space
TTITLE3=Bright Moments
TTITLE4=We Can Dream
TTITLE5=Springtime Magic
TTITLE6=Loveland
TTITLE7=Explorations
EXTD=YEAR: 1978
EXTT0=
EXTT1=
EXTT2=
EXTT3=
EXTT4=
EXTT5=
EXTT6=
EXTT7=
PLAYORDER=
